<?xml version="1.0" encoding="UTF-8" standalone="no"?>
<!DOCTYPE svg  PUBLIC '-//W3C//DTD SVG 1.1//EN'  'http://www.w3.org/Graphics/SVG/1.1/DTD/svg11.dtd'>
<svg xmlns="http://www.w3.org/2000/svg" xml:space="preserve" viewBox="0 0 471.7 471.7" version="1.1" y="0px" x="0px" xmlns:xlink="http://www.w3.org/1999/xlink" enable-background="new 0 0 471.7 471.7">
	<path fill="#007acd" d="m445 34.9l-54 2.7c-8.1 0.4-14.3 7.3-13.8 15.3l11.7 229c0.4 8.1 7.3 14.3 15.3 13.9l53.5-2.7c8.1-0.4 14.3-7.3 13.9-15.3l-12-229c0-8.3-7-14.5-15-14.1z"/>
	<path fill="#007acd" d="m148 433l26.2-27 8.8 8.6c5.8 5.6 15 5.5 20.7-0.3l37.4-38.4c5.6-5.8 5.5-15-0.3-20.7l-164-160c-5.8-5.6-15-5.5-20.7 0.3l-37.4 38.4c-5.6 5.8-5.5 15 0.3 20.7l10.8 10.5-26.2 27c-4.7 4.8-4.8 12.3-0.3 16.7l128 125c4 3 11 3 16-2zm-58.7-56l17.9-17.9 0.4 0.4 6.5 6.5 9.4-9.4 13.7-13.7 2.3-2.3 6.6 6.6-2.2 2.2-14 13-9.5 9.5 6.9 6.9-17.9 17.9-20-20h0.3zm-30.6-117l15.3 15.2-3.2 3.2-13.8 14-8.5 8.5 6.3 6.3-17.9 17.9-21.6-21.6 26.2-26.2 13.7-13 3.5-3zm-0.5 50l6.9 6.9 8.8-8.8 13.7-13.7 3-3 8.4 8.4-2.9 2.9-13.7 13.7-8.9 8.9 6.2 6.2-17.9 17.9-21.6-21.6 18-17zm61.8 16l-13.7 13.7-9.2 9.2 6.9 6.9-17.9 17.9-21.2-21.2 18.3-18 6.9 6.9 9.1-9.1 13.7-13.7 2.7-2.7 7.4 7.4-3 3zm57 52l-1.8 1.8-13.7 13.7-27 28-20.4-20.4-1.2-1.2 17.9-17.9 1.2 1.2 5.7 5.7 9.8-9.8 13.7-13.7 2-2 13 14z"/>
	<path fill="#007acd" d="m105 156c-5 4.2-5.6 11.6-1.4 16.6l141 167c2.3 2.7 5.6 4.2 9 4.2 2.7 0 5.4-0.9 7.6-2.8 5-4.2 5.6-11.6 1.4-16.6l-141-166c-4-5-12-6-17-2z"/>
	<path fill="#007acd" d="m170 106c-5.6 3.3-7.5 10.5-4.3 16.1l112 193c2.2 3.8 6.1 5.9 10.2 5.9 2 0 4.1-0.5 5.9-1.6 5.6-3.3 7.5-10.5 4.3-16.1l-112-192c-3-6-10-8-16-5z"/>
	<path fill="#007acd" d="m323 302c1.3 0 2.6-0.2 3.9-0.7 6.1-2.2 9.3-8.9 7.2-15l-74-210c-2.2-6.1-8.9-9.3-15-7.2-6.1 2.2-9.3 8.9-7.2 15l74 210c2 5 6 8 11 8z"/>
	<path fill="#007acd" d="m340 58.5c-0.9-6.4-6.8-10.9-13.3-10.1-6.4 0.9-10.9 6.8-10.1 13.3l30.4 221c0.8 5.9 5.9 10.2 11.7 10.2 0.5 0 1.1 0 1.6-0.1 6.4-0.9 10.9-6.8 10.1-13.3l-31-222z"/>
</svg>
